<svg width="25" height="24" viewBox="0 0 25 24" fill="none" xmlns="http://www.w3.org/2000/svg">
<g clip-path="url(#clip0_8_1016)">
<path d="M19.5 4H18.5V2H16.5V4H8.5V2H6.5V4H5.5C4.39 4 3.51 4.9 3.51 6L3.5 20C3.5 21.1 4.39 22 5.5 22H19.5C20.6 22 21.5 21.1 21.5 20V6C21.5 4.9 20.6 4 19.5 4ZM19.5 20H5.5V10H19.5V20ZM19.5 8H5.5V6H19.5V8ZM12.5 13H17.5V18H12.5V13Z" fill="white"/>
</g>
<defs>
<clipPath id="clip0_8_1016">
<rect width="24" height="24" fill="white" transform="translate(0.5)"/>
</clipPath>
</defs>
</svg>
