<svg width="25" height="24" viewBox="0 0 25 24" fill="none" xmlns="http://www.w3.org/2000/svg">
<g clip-path="url(#clip0_8_1006)">
<path d="M15.5 16H18.5C19.05 16 19.5 15.55 19.5 15V9C19.5 8.45 19.05 8 18.5 8H15.5C14.95 8 14.5 8.45 14.5 9V15C14.5 15.55 14.95 16 15.5 16ZM16.5 10H17.5V14H16.5V10ZM9.5 16H12.5C13.05 16 13.5 15.55 13.5 15V9C13.5 8.45 13.05 8 12.5 8H9.5C8.95 8 8.5 8.45 8.5 9V15C8.5 15.55 8.95 16 9.5 16ZM10.5 10H11.5V14H10.5V10ZM5.5 8H7.5V16H5.5V8ZM2.5 4V20H22.5V4H2.5ZM20.5 18H4.5V6H20.5V18Z" fill="white"/>
</g>
<defs>
<clipPath id="clip0_8_1006">
<rect width="24" height="24" fill="white" transform="translate(0.5)"/>
</clipPath>
</defs>
</svg>
